<svg width="1600" height="1280" viewBox="0 0 1600 1280" fill="none" xmlns="http://www.w3.org/2000/svg">
  <rect width="1600" height="1280" fill="#0A0D0D"/>
  <rect width="1600" height="1280" fill="url(#backgroundGlow)"/>
  <g opacity="0.35">
    <path d="M0 216H1600" stroke="url(#gridLine)" stroke-width="1"/>
    <path d="M0 432H1600" stroke="url(#gridLine)" stroke-width="1"/>
    <path d="M0 648H1600" stroke="url(#gridLine)" stroke-width="1"/>
    <path d="M0 864H1600" stroke="url(#gridLine)" stroke-width="1"/>
    <path d="M0 1080H1600" stroke="url(#gridLine)" stroke-width="1"/>
    <path d="M320 0V1280" stroke="url(#gridLineVertical)" stroke-width="1"/>
    <path d="M640 0V1280" stroke="url(#gridLineVertical)" stroke-width="1"/>
    <path d="M960 0V1280" stroke="url(#gridLineVertical)" stroke-width="1"/>
    <path d="M1280 0V1280" stroke="url(#gridLineVertical)" stroke-width="1"/>
  </g>

  <g filter="url(#phoneShadow)">
    <rect x="392" y="110" width="816" height="1060" rx="68" fill="#0F1414"/>
    <rect x="414" y="132" width="772" height="1016" rx="52" fill="url(#phoneFill)"/>
    <rect x="714" y="154" width="172" height="24" rx="12" fill="rgba(255,255,255,0.18)"/>
  </g>

  <g filter="url(#panelShadow)">
    <rect x="486" y="244" width="612" height="356" rx="44" fill="url(#panelPrimary)"/>
    <rect x="528" y="286" width="222" height="18" rx="9" fill="rgba(255,255,255,0.18)"/>
    <rect x="528" y="326" width="454" height="82" rx="24" fill="rgba(255,255,255,0.08)"/>
    <rect x="528" y="436" width="124" height="34" rx="17" fill="rgba(255,255,255,0.1)"/>
    <rect x="666" y="436" width="104" height="34" rx="17" fill="rgba(255,255,255,0.08)"/>
    <rect x="784" y="436" width="152" height="34" rx="17" fill="rgba(255,255,255,0.08)"/>
  </g>

  <g filter="url(#panelShadow)">
    <rect x="486" y="640" width="276" height="224" rx="36" fill="rgba(255,255,255,0.08)"/>
    <rect x="520" y="680" width="110" height="14" rx="7" fill="rgba(255,255,255,0.14)"/>
    <rect x="520" y="716" width="190" height="18" rx="9" fill="rgba(255,255,255,0.12)"/>
    <rect x="520" y="754" width="156" height="14" rx="7" fill="rgba(255,255,255,0.08)"/>
    <rect x="520" y="820" width="92" height="30" rx="15" fill="rgba(255,255,255,0.08)"/>
  </g>

  <g filter="url(#panelShadow)">
    <rect x="786" y="640" width="312" height="224" rx="36" fill="rgba(255,255,255,0.06)"/>
    <rect x="822" y="680" width="118" height="14" rx="7" fill="rgba(255,255,255,0.14)"/>
    <rect x="822" y="716" width="224" height="18" rx="9" fill="rgba(255,255,255,0.12)"/>
    <rect x="822" y="754" width="198" height="14" rx="7" fill="rgba(255,255,255,0.08)"/>
    <rect x="822" y="790" width="244" height="14" rx="7" fill="rgba(255,255,255,0.08)"/>
  </g>

  <g opacity="0.78">
    <circle cx="1242" cy="258" r="194" fill="url(#tealGlow)"/>
    <circle cx="292" cy="1036" r="236" fill="url(#amberGlow)"/>
  </g>

  <defs>
    <linearGradient id="phoneFill" x1="414" y1="132" x2="1186" y2="1148" gradientUnits="userSpaceOnUse">
      <stop stop-color="#111717"/>
      <stop offset="1" stop-color="#0A0D0D"/>
    </linearGradient>
    <linearGradient id="panelPrimary" x1="486" y1="244" x2="1098" y2="600" gradientUnits="userSpaceOnUse">
      <stop stop-color="rgba(255,255,255,0.12)"/>
      <stop offset="1" stop-color="rgba(255,255,255,0.04)"/>
    </linearGradient>
    <radialGradient id="backgroundGlow" cx="0" cy="0" r="1" gradientUnits="userSpaceOnUse" gradientTransform="translate(1242 258) rotate(135) scale(900 1230)">
      <stop stop-color="rgba(154,216,202,0.18)"/>
      <stop offset="1" stop-color="rgba(154,216,202,0)"/>
    </radialGradient>
    <radialGradient id="tealGlow" cx="0" cy="0" r="1" gradientUnits="userSpaceOnUse" gradientTransform="translate(1242 258) rotate(90) scale(194)">
      <stop stop-color="#9AD8CA" stop-opacity="0.64"/>
      <stop offset="1" stop-color="#9AD8CA" stop-opacity="0"/>
    </radialGradient>
    <radialGradient id="amberGlow" cx="0" cy="0" r="1" gradientUnits="userSpaceOnUse" gradientTransform="translate(292 1036) rotate(90) scale(236)">
      <stop stop-color="#DDA97B" stop-opacity="0.42"/>
      <stop offset="1" stop-color="#DDA97B" stop-opacity="0"/>
    </radialGradient>
    <linearGradient id="gridLine" x1="0" y1="0" x2="1600" y2="0" gradientUnits="userSpaceOnUse">
      <stop stop-color="rgba(255,255,255,0)"/>
      <stop offset="0.25" stop-color="rgba(255,255,255,0.08)"/>
      <stop offset="0.75" stop-color="rgba(255,255,255,0.08)"/>
      <stop offset="1" stop-color="rgba(255,255,255,0)"/>
    </linearGradient>
    <linearGradient id="gridLineVertical" x1="0" y1="0" x2="0" y2="1280" gradientUnits="userSpaceOnUse">
      <stop stop-color="rgba(255,255,255,0)"/>
      <stop offset="0.25" stop-color="rgba(255,255,255,0.08)"/>
      <stop offset="0.75" stop-color="rgba(255,255,255,0.08)"/>
      <stop offset="1" stop-color="rgba(255,255,255,0)"/>
    </linearGradient>
    <filter id="phoneShadow" x="316" y="64" width="968" height="1212" filterUnits="userSpaceOnUse" color-interpolation-filters="sRGB">
      <feFlood flood-opacity="0" result="BackgroundImageFix"/>
      <feColorMatrix in="SourceAlpha" type="matrix" values="0 0 0 0 0 0 0 0 0 0 0 0 0 0 0 0 0 0 127 0" result="hardAlpha"/>
      <feOffset dy="30"/>
      <feGaussianBlur stdDeviation="38"/>
      <feComposite in2="hardAlpha" operator="out"/>
      <feColorMatrix type="matrix" values="0 0 0 0 0.0156863 0 0 0 0 0.0352941 0 0 0 0 0.0352941 0 0 0 0.6 0"/>
      <feBlend mode="normal" in2="BackgroundImageFix" result="effect1_dropShadow_1_1"/>
      <feBlend mode="normal" in="SourceGraphic" in2="effect1_dropShadow_1_1" result="shape"/>
    </filter>
    <filter id="panelShadow" x="450" y="220" width="684" height="680" filterUnits="userSpaceOnUse" color-interpolation-filters="sRGB">
      <feFlood flood-opacity="0" result="BackgroundImageFix"/>
      <feColorMatrix in="SourceAlpha" type="matrix" values="0 0 0 0 0 0 0 0 0 0 0 0 0 0 0 0 0 0 127 0" result="hardAlpha"/>
      <feOffset dy="16"/>
      <feGaussianBlur stdDeviation="18"/>
      <feComposite in2="hardAlpha" operator="out"/>
      <feColorMatrix type="matrix" values="0 0 0 0 0.0156863 0 0 0 0 0.0235294 0 0 0 0 0.0235294 0 0 0 0.42 0"/>
      <feBlend mode="normal" in2="BackgroundImageFix" result="effect1_dropShadow_1_1"/>
      <feBlend mode="normal" in="SourceGraphic" in2="effect1_dropShadow_1_1" result="shape"/>
    </filter>
  </defs>
</svg>
